<svg width="79" height="79" viewBox="0 0 79 79" fill="none" xmlns="http://www.w3.org/2000/svg">
<path d="M68.8058 30.3195H66.2828L69.4439 16.3762C69.5145 16.043 69.5164 15.6987 69.4495 15.3647C69.3826 15.0307 69.2483 14.714 69.055 14.4342C68.8617 14.1544 68.6134 13.9174 68.3255 13.7379C68.0376 13.5584 67.7162 13.4402 67.3811 13.3905L20.0541 4.03032C19.7334 3.97939 19.4059 3.99272 19.0903 4.06957C18.7747 4.14641 18.4774 4.28524 18.2153 4.47808C17.9533 4.67092 17.7317 4.91397 17.5634 5.19324C17.395 5.47251 17.2832 5.78251 17.2344 6.10539L13.8507 22.915H9.62113C8.66195 22.9189 7.74317 23.3039 7.06492 23.9862C6.38667 24.6685 6.00391 25.5927 6 26.5575V64.8493C6.00392 66.2141 6.5446 67.5218 7.50395 68.4868C8.46329 69.4518 9.76332 69.9957 11.12 69.9997H68.8058C69.4838 70.0075 70.1567 69.8803 70.7856 69.6251C71.4145 69.37 71.9869 68.9922 72.4698 68.5133C72.9528 68.0345 73.3366 67.4641 73.5993 66.8353C73.8619 66.2064 73.9981 65.5314 74 64.8493V35.4699C73.9981 34.7878 73.8619 34.1128 73.5993 33.4839C73.3366 32.855 72.9528 32.2847 72.4698 31.8059C71.9869 31.327 71.4145 30.9491 70.7856 30.694C70.1567 30.4389 69.4838 30.3116 68.8058 30.3195V30.3195ZM69.9485 64.8493C69.9485 65.0003 69.9189 65.1497 69.8615 65.2892C69.8041 65.4287 69.7199 65.5554 69.6138 65.6621C69.5077 65.7689 69.3817 65.8535 69.2431 65.9113C69.1044 65.9691 68.9558 65.9988 68.8058 65.9988H11.12C10.817 65.9988 10.5263 65.8777 10.312 65.6621C10.0977 65.4466 9.9773 65.1542 9.9773 64.8493V26.9158H32.9507V32.32C32.9585 32.8453 33.1714 33.3465 33.5435 33.7152C33.9156 34.0839 34.417 34.2906 34.9393 34.2905H68.8058C69.1076 34.2944 69.3961 34.4167 69.6095 34.6315C69.823 34.8462 69.9447 35.1364 69.9485 35.44V64.8493Z" fill="currentColor"/>
<path d="M22.9434 53.8887V40.0938H27.0312V53.8887C27.0312 55.2194 26.7396 56.3633 26.1562 57.3203C25.5729 58.2682 24.7754 58.9974 23.7637 59.5078C22.7611 60.0182 21.6309 60.2734 20.373 60.2734C19.0697 60.2734 17.9167 60.0547 16.9141 59.6172C15.9115 59.1797 15.123 58.5098 14.5488 57.6074C13.9746 56.696 13.6875 55.543 13.6875 54.1484H17.8027C17.8027 54.8776 17.903 55.4564 18.1035 55.8848C18.3132 56.3132 18.6094 56.6185 18.9922 56.8008C19.375 56.9831 19.8353 57.0742 20.373 57.0742C20.8926 57.0742 21.3438 56.9512 21.7266 56.7051C22.1094 56.459 22.4056 56.099 22.6152 55.625C22.834 55.151 22.9434 54.5723 22.9434 53.8887Z" fill="currentColor"/>
<path d="M38.2832 52.9043H33.2109V49.7051H38.2832C39.0671 49.7051 39.7051 49.5775 40.1973 49.3223C40.6895 49.0579 41.0495 48.6934 41.2773 48.2285C41.5052 47.7637 41.6191 47.2396 41.6191 46.6562C41.6191 46.0638 41.5052 45.5124 41.2773 45.002C41.0495 44.4915 40.6895 44.0814 40.1973 43.7715C39.7051 43.4616 39.0671 43.3066 38.2832 43.3066H34.6328V60H30.5312V40.0938H38.2832C39.8418 40.0938 41.1771 40.3763 42.2891 40.9414C43.4102 41.4974 44.2669 42.2676 44.8594 43.252C45.4518 44.2363 45.748 45.362 45.748 46.6289C45.748 47.9141 45.4518 49.026 44.8594 49.9648C44.2669 50.9036 43.4102 51.6283 42.2891 52.1387C41.1771 52.6491 39.8418 52.9043 38.2832 52.9043Z" fill="currentColor"/>
<path d="M64.3555 49.5957V57.4844C64.0456 57.8581 63.5671 58.2637 62.9199 58.7012C62.2728 59.1296 61.4388 59.4987 60.418 59.8086C59.3971 60.1185 58.1621 60.2734 56.7129 60.2734C55.4277 60.2734 54.2565 60.0638 53.1992 59.6445C52.1419 59.2161 51.2305 58.5918 50.4648 57.7715C49.7083 56.9512 49.125 55.9486 48.7148 54.7637C48.3047 53.5697 48.0996 52.207 48.0996 50.6758V49.4316C48.0996 47.9004 48.2956 46.5378 48.6875 45.3438C49.0885 44.1497 49.6582 43.1426 50.3965 42.3223C51.1348 41.502 52.0143 40.8776 53.0352 40.4492C54.056 40.0208 55.1908 39.8066 56.4395 39.8066C58.1712 39.8066 59.5931 40.0892 60.7051 40.6543C61.8171 41.2103 62.6647 41.985 63.248 42.9785C63.8405 43.9629 64.2051 45.0931 64.3418 46.3691H60.3633C60.263 45.6947 60.0716 45.1068 59.7891 44.6055C59.5065 44.1042 59.1009 43.7122 58.5723 43.4297C58.0527 43.1471 57.3783 43.0059 56.5488 43.0059C55.8652 43.0059 55.2546 43.1471 54.7168 43.4297C54.1882 43.7031 53.7415 44.1087 53.377 44.6465C53.0124 45.1842 52.7344 45.8496 52.543 46.6426C52.3516 47.4355 52.2559 48.3561 52.2559 49.4043V50.6758C52.2559 51.7148 52.3561 52.6354 52.5566 53.4375C52.7572 54.2305 53.0534 54.9004 53.4453 55.4473C53.8464 55.985 54.3385 56.3906 54.9219 56.6641C55.5052 56.9375 56.1842 57.0742 56.959 57.0742C57.6061 57.0742 58.1439 57.0195 58.5723 56.9102C59.0098 56.8008 59.3607 56.6686 59.625 56.5137C59.8984 56.3496 60.1081 56.1947 60.2539 56.0488V52.5215H56.5078V49.5957H64.3555Z" fill="currentColor"/>
</svg>
