<svg xmlns="http://www.w3.org/2000/svg" fill="none" width="79" height="79" viewBox="0 0 78.59 78.59">
    <path d="M21.34,35.46l-2.87-.86c1.39-4.65,3.6-7.46,6.55-8.36s6.26.16,10,3.07l5.87-2.75,1.28,2.71-7.57,3.56-.74-.61c-2.24-1.85-5.45-3.88-8-3.11S22.09,33,21.34,35.46Z" fill="currentColor"/>
    <path d="M54.45,31.53l-3-.59c.84-4.19.25-8.75-1.27-9.76-.16-.11-.3-.09-1.35.58-1.65,1-4.12,2.61-8.17.82a12.49,12.49,0,0,1-2-1.34c-1-.73-2.65-1.94-3.43-2h0c-1.85,0-2.82,3.63-3,4.61l-3-.49c.44-2.66,2.17-7.12,5.93-7.12h.11c1.72,0,3.53,1.37,5.13,2.54a10.88,10.88,0,0,0,1.49,1c2.57,1.15,3.92.29,5.34-.61,1.18-.74,2.79-1.76,4.62-.54C55.21,20.89,55.24,27.57,54.45,31.53Z" fill="currentColor"/>
    <path d="M28.11,57.64C23,57.64,18.28,53,17.31,47c-1-6.2,3.45-8.67,7-10.66l1-.58,1.48,2.61L25.79,39c-3.83,2.13-6.15,3.64-5.52,7.57.76,4.69,4.57,8.41,8.28,8.08.81-.07,1.05-1.06,1.29-3.8s.55-6.12,3.47-7.58l1.34,2.68c-1.32.66-1.59,2.56-1.82,5.17s-.56,6.23-4,6.52Z" fill="currentColor"/>
    <path d="M46.23,59.71c-3,0-5.41-1.73-7.92-3.56a38,38,0,0,0-3.26-2.21l1.52-2.59c1.28.75,2.41,1.58,3.5,2.37,2.28,1.66,4.23,3.07,6.4,3C50,56.54,54.9,52.41,55,51c-.2-.46-2.19-1.07-4.22-1.14l-.28,0a4.75,4.75,0,0,1-3.49-4c-.24-2,.92-3.93,3.13-5l1.34,2.68c-.74.38-1.6,1-1.49,2a1.75,1.75,0,0,0,1.06,1.38c1.07,0,4.59.35,6.15,2.07a3,3,0,0,1,.8,2.27c-.26,3.63-7.22,8.31-11.39,8.51Z" fill="currentColor"/>
    <path d="M40,48.66c-3-4.9-1.89-10.43.61-13.15a5.6,5.6,0,0,1,6.88-1.32c3.3,1.65,6,1,8.37.36,2.23-.57,4.53-1.16,6.29.82,3,3.38-.37,8.59-2.85,11.14l-2.15-2.1c1-1,4.39-5.23,2.77-7-.48-.54-1.18-.46-3.32.08-2.6.67-6.16,1.57-10.45-.57a2.58,2.58,0,0,0-3.33.67c-1.79,1.93-2.38,6-.25,9.56Z" fill="currentColor"/>
</svg>