<svg width="79" height="79" viewBox="0 0 79 79" fill="none" xmlns="http://www.w3.org/2000/svg">
<path d="M68.8058 30.3195H66.2828L69.4439 16.3762C69.5145 16.043 69.5164 15.6987 69.4495 15.3647C69.3826 15.0307 69.2483 14.714 69.055 14.4342C68.8617 14.1544 68.6134 13.9174 68.3255 13.7379C68.0376 13.5584 67.7162 13.4402 67.3811 13.3905L20.0541 4.03032C19.7334 3.97939 19.4059 3.99272 19.0903 4.06957C18.7747 4.14641 18.4774 4.28524 18.2153 4.47808C17.9533 4.67092 17.7317 4.91397 17.5634 5.19324C17.395 5.47251 17.2832 5.78251 17.2344 6.10539L13.8507 22.915H9.62113C8.66195 22.9189 7.74317 23.3039 7.06492 23.9862C6.38667 24.6685 6.00391 25.5927 6 26.5575V64.8493C6.00392 66.2141 6.5446 67.5218 7.50395 68.4868C8.46329 69.4518 9.76332 69.9957 11.12 69.9997H68.8058C69.4838 70.0075 70.1567 69.8803 70.7856 69.6251C71.4145 69.37 71.9869 68.9922 72.4698 68.5133C72.9528 68.0345 73.3366 67.4641 73.5993 66.8353C73.8619 66.2064 73.9981 65.5314 74 64.8493V35.4699C73.9981 34.7878 73.8619 34.1128 73.5993 33.4839C73.3366 32.855 72.9528 32.2847 72.4698 31.8059C71.9869 31.327 71.4145 30.9491 70.7856 30.694C70.1567 30.4389 69.4838 30.3116 68.8058 30.3195V30.3195ZM69.9485 64.8493C69.9485 65.0003 69.9189 65.1497 69.8615 65.2892C69.8041 65.4287 69.7199 65.5554 69.6138 65.6621C69.5077 65.7689 69.3817 65.8535 69.2431 65.9113C69.1044 65.9691 68.9558 65.9988 68.8058 65.9988H11.12C10.817 65.9988 10.5263 65.8777 10.312 65.6621C10.0977 65.4466 9.9773 65.1542 9.9773 64.8493V26.9158H32.9507V32.32C32.9585 32.8453 33.1714 33.3465 33.5435 33.7152C33.9156 34.0839 34.417 34.2906 34.9393 34.2905H68.8058C69.1076 34.2944 69.3961 34.4167 69.6095 34.6315C69.823 34.8462 69.9447 35.1364 69.9485 35.44V64.8493Z" fill="currentColor"/>
<path d="M29.7109 40.0938V60H25.623V40.0938H29.7109ZM35.8359 40.0938V43.3066H19.5938V40.0938H35.8359Z" fill="currentColor"/>
<path d="M42.5352 40.0938V60H38.4473V40.0938H42.5352Z" fill="currentColor"/>
<path d="M50.4785 40.0938V60H46.377V40.0938H50.4785ZM58.4082 48.5977V51.7969H49.3574V48.5977H58.4082ZM59.3652 40.0938V43.3066H49.3574V40.0938H59.3652Z" fill="currentColor"/>
</svg>
