<svg version="1.1" xmlns="http://www.w3.org/2000/svg" xmlns:xlink="http://www.w3.org/1999/xlink" x="0px" y="0px" width="260" height="38" viewBox="0 0 260 38" style="enable-background:new 0 0 260 38;" xml:space="preserve"><style type="text/css">path{fill:none;stroke:#FFFFFF;stroke-linecap:round;stroke-linejoin:round;}</style><path d="M90.3,1.4c-0.6-0.8-5-0.4-7.7,0.6v19.1c0,3.7,4.8,6.5,12.5,7.4c6.5,0,14.5-4.8,14.5-9.3V1.4 c-0.7-0.7-3.6-0.4-5.9,0.6v19.1c0,2-1.6,3-4.3,3s-9.1-1.6-9.1-5L90.3,1.4z"/><path d="M249.1,1c-8.7,0-17.5,4.2-17.5,8.5c1.7,11.4,20.3,8.3,20.3,12.2c0,1.7-1.5,2.8-4.5,2.8c-2.8,0-9.1-2.7-12.9-5.7 l-3.1,4.8c3.9,3.6,6.7,4.6,11.6,5.4c8.1,0,15.8-5,15.8-8.3c-0.3-10.9-20.4-8.7-20.4-12.5c0-1.2,1.4-3.1,4.9-3.1 c4.7,0,8.2,2.3,12.4,5.7l3-4.7C254.7,2.9,252.6,1.7,249.1,1z"/><path d="M42.2,8.5c0-3.1,6.4-7.4,15.1-7.4c4,0.3,12,3.2,12,6.5v12.4c0,3.8-8,8.9-15.6,9.2c-5-0.5-11.5-3.6-11.5-6.6 L42.2,8.5z M49.5,20.1c0,1.8,5.8,4.3,9,4.3c3.5,0,3.7-1.3,3.7-2.6V9.3c0-2.3-4.4-4.1-9.6-4.1c-1.5,0.1-2.8,1.3-3,2.8L49.5,20.1z"/><path d="M59,37l-15-4c0.7-1.8,2.3-3.1,4.3-3.5L66.2,33C64.3,35,61.8,36.4,59,37z"/><path d="M171.9,24.1V1.4c-0.6-0.8-5-0.4-7.7,0.6v26.1l0,0l0,0h19.9c2.8-0.6,5.3-2,7.2-4.1L171.9,24.1z"/><path d="M208.4,24.1V1.4c-0.6-0.8-5-0.4-7.7,0.6v26.1l0,0l0,0h19.9c2.7-0.6,5.2-2,7.2-4H208.4z"/><path d="M25.4,19.1c-2,3.3-4.3,5.3-8.5,5.3c-3.2,0-8.3-2.5-8.3-4.3v-1.5h11.5c2.4,0,3.9-1.6,5.3-3.6l2.6-4 c-3-2.6-7.5-3.9-11.5-4.2c-8.7,0-15.1,4.4-15.1,7.4v8.2c0,3,6.4,6.1,11.5,6.6c7.5,0,12.4-2.7,15.7-7.6L25.4,19.1z M11.6,11 c5.4,0,9.5,1.3,10.4,1.9c0.3,0.4,0.3,1.1-0.2,1.4c-0.1,0.1-0.3,0.2-0.5,0.2H8.5v-0.7C8.8,12.3,10,11.1,11.6,11z"/><path d="M138.7,5h3.2c2-0.3,6.3-2.9,7.1-4.1h-19.9c-2.8,0.6-5.3,2-7.2,4.1h9.1v19h-1.9c-2.8,0.6-5.3,2-7.2,4.1h20 c2-0.3,6.3-2.9,7.1-4.1h-10.3V5z"/></svg>
