<svg version="1.1" xmlns="http://www.w3.org/2000/svg" xmlns:xlink="http://www.w3.org/1999/xlink" x="0px" y="0px" width="300" height="300" viewBox="0 0 300 300" xml:space="preserve" fill="#FFF">
<path d="M228.2,149.2c0.7,0,1.5-0.2,2.2-0.3c0.8-0.1,1.9-0.1,2.6-0.6c0.5-0.3,0.6-0.7,0.8-1.2c0.5-1.3,1.1-2.5,1.6-3.8 c1.4-3.4,2.9-6.8,4.3-10.3c0.5-1.2,1-3.1-1-3.4c-1.3-0.2-1.9,1.1-2.5,2c-2,3.1-4,6.2-6,9.3c-1,1.5-1.9,3-2.9,4.5 c-0.2,0.3-0.4,0.6-0.6,1C226.2,147.7,226.8,149.2,228.2,149.2L228.2,149.2z"/> <path d="M162.4,186.5c0.9,0.4,1.7-0.1,2.3-0.8c0.8-0.9,1.6-1.8,2.3-2.6c1.6-1.7,3.2-3.4,4.8-5c0.8-0.7,1.8-1.4,2.1-2.4 c0.1-0.3,0.1-0.5,0.2-0.8c0.7-3,1.5-6,2.2-9c2.1-8.9,4.3-17.7,6.4-26.6c0.3-1.3,0.6-2.6,1-4c0.1-0.6,0.4-1.2,0.4-1.8 c-0.1-1.9-2.4-2.2-3.3-0.7c-0.1,0.1-0.1,0.3-0.2,0.4c-0.4,0.9-0.9,1.8-1.3,2.7c-3.8,7.9-7.7,15.8-11.5,23.7 c-1.6,3.4-3.3,6.7-4.9,10.1c-0.4,0.8-0.8,1.5-1.1,2.3c-0.3,0.6-0.3,1.2-0.2,1.8c0.1,2.3,0,4.7,0,7c0,1.2-0.1,2.4-0.2,3.6 C161.3,185.2,161.4,186.1,162.4,186.5z M165,173.2l11.8-24.3c-2,8.1-3.9,16.2-5.9,24.3c-0.1,0.4-0.1,0.9-0.3,1.3 c-0.5,0.9-1.8,1.7-2.5,2.4c-1.1,1.1-2.1,2.2-3.2,3.3C165,177.8,165.1,175.5,165,173.2z"/> <path d="M230,83.3c1.4,0.5,2.1-0.7,2.6-1.7c0.6-1.1,1.2-2.3,1.8-3.4c2.1-3.9,4.1-7.8,6.2-11.7c4-7.5,8-15,11.9-22.5 c0.4-0.7,0.9-1.5,0.8-2.3c-0.2-1-1.4-1.8-2.1-2.5c-0.9-0.8-1.8-1.6-2.7-2.5c-1.8-1.6-3.6-3.1-5.5-4.6c-1.2-0.9-3.8-3.4-4.8-0.8 c-0.1,0.2-0.1,0.4-0.1,0.6c-0.2,0.9-0.3,1.8-0.5,2.7c-1.6,8.8-3.3,17.6-4.9,26.4c-0.8,4.5-1.7,8.9-2.5,13.4c-0.4,2.2-1,4.5-1.3,6.7 C228.8,82.1,229.1,83,230,83.3z M241.1,35.1c2.6,2.1,5.3,4.3,7.7,6.6c0.8,0.7,0.7,0.6,0.2,1.4c-1.1,2-2.1,4-3.2,6 c-3.1,5.8-6.1,11.6-9.2,17.4c-0.8,1.4-1.5,2.9-2.3,4.3L241.1,35.1z"/> <path d="M6.5,181.1c1.4-3.2,2.8-6.3,4.2-9.5c3.6-8.1,7.2-16.2,10.8-24.3c4.9-10.9,9.7-21.8,14.6-32.7 c5.2-11.7,10.4-23.3,15.6-35c4.6-10.4,9.3-20.8,13.9-31.2c3.1-7,6.2-14,9.4-21c0.7-1.6,1.4-3.1,2.1-4.7c0.2-0.4,0.4-0.8,0.4-1.2 c0.1-1.1-0.9-2-2-1.9c-1.1,0.2-2.3,1.2-3.2,1.8c-2,1.2-4,2.5-6,3.8C50.6,36,36.9,49.6,26.2,65.2C15.7,80.6,8.1,97.9,3.9,116.1 c-4.3,18.4-5,37.6-2.2,56.3c0.3,2.3,0.7,4.6,1.2,6.9c0.2,1,0.2,2.4,1.4,2.8C5.1,182.4,6.1,182,6.5,181.1z M3.5,149.9 C3.6,99.6,29.4,52.8,72,25.9L5.6,174.7C4.2,166.5,3.5,158.2,3.5,149.9z"/> <path d="M55.3,209.4c7,0,14,0,21,0c5.7,0,11.3,0,17,0c1.9,0,3.8,0,5.7,0c1.2,0,2.3,0.2,3-1c1.2-2.1,2-4.4,3-6.5 c3.4-7.2,6.8-14.5,10.2-21.7c0.4-0.8,1-1.7,0.6-2.6c-0.6-1.4-2.5-1-3.8-1c-4.1,0-8.1,0-12.2,0c-1.4,0-3-0.4-2.4-2.2 c0.3-0.7,0.7-1.4,1-2.1c1.6-3.5,3.2-6.9,4.8-10.4c1.9-4,3.7-8,5.6-12c0.6-1.3,1.3-2.7,1.9-4c0.3-0.6,0.5-1.5,1-1.9 c0.7-0.7,2.1-0.4,3-0.4c1.9,0,3.7,0,5.6,0c4.2,0,8.3,0,12.5,0c1,0,2.4,0.2,3.1-0.6c0.6-0.6,0.9-1.6,1.2-2.3c1.8-3.7,3.7-7.3,5.5-11
c1.5-3,2.9-6,4.5-8.9c0.5-1,1-1.9,1.4-2.9c0.8-1.6,2.5-4.5-0.6-4.7c-1-0.1-2,0-3,0c-1.4,0-1.9-0.6-2.3-2c-1.2-4.3-2.1-8.6-2.8-13
c-1.3-8-2.1-16.4-0.9-24.5c1-6.9,3.3-13.7,6.6-19.9c2.8-5.5,6.5-10.8,11.2-14.9c3.6-3.1,8.5-5.8,13.4-4.7c5.9,1.4,6.4,8,5.3,13
c-1.5,6.8-5.3,13-9.1,18.8c-0.8,1.3-0.6,2.9,1.2,3.1c0.3,0,0.5,0,0.8,0c1.5,0,3,0,4.4,0c4.4,0,8.9,0,13.3,0c1.6,0,3.2,0,4.8,0
c0.4,0,0.7,0,1.1,0c1.3-0.1,1.7-1,2.3-2c4.1-6.5,7.8-13.3,10.7-20.4c2.5-6.2,4.3-12.5,3.5-19.3c-0.5-3.9-1.5-7.7-3.2-11.2
c-0.8-1.8-1.8-3.5-2.9-5.1c-0.5-0.7-1-1.7-1.7-2.2c-0.8-0.6-2-0.8-2.9-1.1c-8.4-2.8-17.1-4.9-25.9-6.1c-2.2-0.3-4.4-0.6-6.5-0.8
c-1.1-0.1-2.2-0.2-3.3-0.3c-1.1-0.1-2.3-0.3-3.4-0.2c-1.4,0.2-2.9,1-4.3,1.6c-2.6,1.1-5.1,2.4-7.6,3.8c-5.3,3.1-10.1,7.1-14.2,11.6
c-5.2,5.6-9.4,12-12.8,18.8c-0.9,1.8-1.7,3.6-2.5,5.4c-0.4,1-0.9,2-1.2,3c-0.3,0.8-1,2.2-1,3.1c-2.5,7.3-3.8,15-4.5,22.7
c-1.1,12.5,1.1,24.8,4,36.8c0.4,1.6,2.3,5.6-0.6,5.9c-0.5,0-1.1,0-1.6,0c-2.8,0-5.6,0-8.5,0c-6.9,0-13.8,0-20.7,0
c-1.4,0-3.9-0.5-4.8,1c-0.9,1.5-1.5,3.1-2.3,4.7c-3.1,6.2-6.1,12.4-9.2,18.6c-0.7,1.5-3.1,5.1,0.1,5.4c2.1,0.2,4.4,0,6.6,0
c3.5,0,7.1,0,10.6,0c0.7,0,1.5-0.1,2.2,0c1.4,0.1,1.7,1.4,1.3,2.5c-2.3,5.3-4.9,10.4-7.3,15.6c-1.5,3.2-3,6.3-4.4,9.5
c-0.8,1.7-1.5,3.6-2.5,5.3c-0.8,1.4-2.4,1-3.8,1c-3.1,0-6.2,0-9.2,0c-6.4,0-12.7,0-19.1,0c-0.5,0-1.3,0.1-1.8-0.1
c-0.9-0.4-1-1.4-0.7-2.2c0.2-0.5,0.4-0.9,0.6-1.4c1.1-2.4,2.2-4.8,3.3-7.3c4.4-9.5,8.7-18.9,13.1-28.4C62,124,68.1,110.9,74.1,97.8
C80.4,84.1,86.7,70.5,93,56.9c5.1-11.1,10.2-22.2,15.3-33.3c2.5-5.5,5.1-11,7.6-16.5c0.7-1.6-0.1-3.2-2.2-2.8c-7,1.5-14,4-20.6,6.7
c-1.5,0.6-2.9,1.2-4.4,1.9c-0.8,0.4-1.6,0.7-2.4,1.1c-0.8,0.4-1.8,0.7-2.4,1.3c-0.2,0.2-0.3,0.4-0.4,0.7c-0.3,0.5-0.5,1.1-0.7,1.6
c-2.9,6.6-5.9,13.2-8.8,19.8C68.8,49,63.6,60.7,58.4,72.3C52.3,86.1,46.1,99.9,40,113.7c-5.8,13.1-11.7,26.2-17.5,39.3
c-4.2,9.4-8.4,18.8-12.6,28.2c-1.1,2.4-2.2,4.9-3.3,7.3c-0.2,0.5-0.5,1-0.7,1.5c-0.2,0.6-0.2,1.1,0,1.7c0.9,3.5,2.2,7,3.5,10.5
c0.6,1.7,1.3,3.3,1.9,4.9c0.5,1.1,0.8,2.2,2.1,2.3c0.4,0,0.8,0,1.2,0c2.3,0,4.7,0,7,0c7.3,0,14.6,0,21.8,0c2.8,0,5.6,0,8.4,0
C53,209.4,54.3,209.2,55.3,209.4z M9.3,191c0.8-1.7,1.5-3.4,2.3-5.1c2-4.6,4.1-9.2,6.1-13.7c3-6.8,6-13.5,9-20.3
c3.6-8.1,7.2-16.2,10.8-24.3c3.9-8.8,7.9-17.6,11.8-26.5c3.9-8.7,7.7-17.3,11.6-26c3.5-7.9,7-15.8,10.5-23.7
c2.8-6.3,5.6-12.5,8.4-18.8c1.8-3.9,3.5-7.9,5.3-11.8c0.4-0.8,0.7-1.8,1.2-2.6c0.1-0.1,0.1-0.3,0.2-0.4c0.5-0.5,1.9-0.9,2.6-1.2
c1.1-0.5,2.1-1,3.2-1.4c2.1-0.9,4.3-1.8,6.5-2.6c4.2-1.6,8.4-2.9,12.7-4.1c-1.5,3.3-3,6.6-4.5,9.8c-3.9,8.4-7.7,16.8-11.6,25.2
c-5.2,11.3-10.4,22.7-15.7,34c-5.6,12.1-11.2,24.2-16.7,36.3c-4.9,10.7-9.9,21.4-14.8,32.2c-3.3,7.2-6.6,14.3-9.9,21.5
c-0.7,1.6-1.5,3.1-2.2,4.7c-0.4,0.8-0.7,1.6-0.7,2.5c-0.1,3.4,2.8,5.1,5.8,5.1c10.2,0,20.4,0.1,30.6,0c2.3,0,4.1-1.1,5.1-3.2
c0.8-1.6,1.5-3.2,2.2-4.8c2.7-5.7,5.4-11.4,8-17.1c1-2.2,2.1-4.4,3.1-6.7c0.7-1.6,1.6-3.1,1.3-4.9c-0.4-2.4-2.4-4-4.8-4.2
c-0.6,0-1.2,0-1.8,0c-3.1,0-6.1,0-9.2,0c-1.9,0-3.8,0-5.6,0c3.4-7,6.9-13.9,10.3-20.9c0.2-0.4,0.5-1.5,0.9-1.6c0.2-0.1,0.8,0,1.1,0
c0.7,0,1.4,0,2,0c4.6,0,9.2,0,13.9,0c4.4,0,8.9,0,13.3,0c0.9,0,1.7,0,2.6,0c1.5,0,2.9-0.6,3.9-1.8c1.4-1.6,1.3-3.5,0.8-5.5
c-2.3-9.1-4.4-18.5-4.8-27.9c-0.3-5.9,0.1-11.8,1-17.6c1.4-9.4,4.3-18.7,8.5-27.2c3.5-7,8.2-13.6,13.8-19.1
c4.5-4.5,9.7-8.3,15.4-11.2c1.4-0.7,2.9-1.4,4.4-2c0.7-0.3,1.5-0.7,2.2-0.8c1-0.2,2.3,0.2,3.3,0.2c1.3,0.1,2.6,0.2,3.9,0.4
c9.9,1.1,19.7,3.3,29.1,6.4c0.9,0.3,2.5,0.6,3.2,1.2c0.7,0.7,1.3,1.9,1.8,2.8c1.1,1.9,2,3.9,2.8,6c1.4,3.9,2.1,8.2,1.8,12.3
c-0.3,3.4-1.3,6.8-2.5,10c-1.5,3.9-3.2,7.7-5.2,11.5c-1,1.9-2,3.8-3.1,5.7c-0.5,0.9-1,1.7-1.5,2.5c-0.5,0.8-1,2-1.7,2.7
c-0.5,0.5-1,0.3-1.7,0.3c-1.2,0-2.4,0-3.6,0c-3.4,0-6.8,0-10.2,0c-1.7,0-3.4,0-5.1,0c3-4.7,5.7-9.6,7.4-15
c1.2-3.9,1.8-8.3,0.6-12.3c-2.5-8.3-11.9-9.3-18.7-5.9c-7.9,4-13.7,11.9-17.7,19.6c-4.7,9.1-7.6,19.4-7.4,29.7
c0.1,7.2,0.9,14.5,2.3,21.6c0.3,1.7,0.7,3.5,1.2,5.2c0.4,1.6,0.7,3.4,1.3,4.9c1,2.4,3.2,3.1,5.6,3.1c-3.2,6.5-6.5,13-9.8,19.5
c-0.6,1.1-1,2.7-1.8,3.6c-0.4,0.5-0.9,0.3-1.6,0.3c-4.3,0-8.7,0-13,0c-1.8,0-3.6,0-5.4,0c-1.8,0-3.4,0.2-4.7,1.6
c-0.7,0.7-1.1,1.7-1.5,2.6c-0.6,1.4-1.3,2.8-1.9,4.2c-3.6,7.7-7.1,15.4-10.7,23.1c-0.3,0.8-0.8,1.5-1,2.3c-0.8,3.2,1.7,6.1,4.9,6.2
c3.8,0.1,7.5,0,11.3,0c0.4,0,0.8,0,1.2,0c-3.6,7.8-7.3,15.6-10.9,23.4c-0.3,0.6-0.6,1.3-0.9,1.9c-0.1,0.1-0.2,0.5-0.3,0.6
c-0.3,0.2-1.1,0-1.4,0c-1.1,0-2.2,0-3.4,0c-4.3,0-8.6,0-13,0c-8.3,0-16.7,0-25,0c-7.2,0-14.3,0-21.5,0c-5.1,0-10.3,0-15.4,0
c-1.4,0-2.9,0-4.3,0c-0.2,0-0.5,0.1-0.7,0c-0.2-0.1-0.4-1-0.5-1.2c-0.3-0.7-0.5-1.4-0.8-2.1c-0.5-1.3-1-2.6-1.4-3.9
C10.9,196.1,10.1,193.6,9.3,191L9.3,191z"/>
<path d="M43.9,172.6c0.7,1.1,2.4,0.8,3.5,0.8c2,0,4,0,5.9,0c4.6,0,9.2,0,13.9,0c0.9,0,1.8,0.1,2.7,0
c1.4-0.1,1.8-1.5,2.3-2.6c1.8-3.9,3.6-7.7,5.5-11.6c1.6-3.5,3.3-7,4.9-10.5c0.6-1.4,0.5-2.9-1.4-3.1c-1.4-0.1-2.8,0-4.1,0
c-4.5,0-9.1,0-13.6,0c-1.4,0-3.8,0-3-2.2c0.2-0.6,0.6-1.2,0.9-1.7c3.9-7.9,7.8-15.8,11.7-23.7c1.2-2.3,2.2-4.8,3.5-7.1
c0.6-1,1.4-0.9,2.4-0.9c1.5,0,3,0,4.5,0c8.5,0,17,0,25.5,0c0.3,0,0.6,0,0.9,0c1.6-0.1,1.9-1.4,1.6-2.8c-0.9-3.9-1.8-7.9-2.5-11.9
c-1.4-8.1-2.1-16.4-1.4-24.6c1-12.3,3.8-24.6,9.3-35.7c3.2-6.4,7.1-12.5,11.8-18c3.2-3.7,6.8-7.1,10.8-10c1.3-1,2.7-1.9,4.1-2.8
c0.9-0.6,2.1-1,2.2-2.2c0.3-2.6-3.7-1.8-5.2-1.7c-4.9,0.3-9.8,0.9-14.7,1.6c-1.6,0.3-4.1,0.1-4.9,1.8c-0.4,0.7-0.7,1.6-1.1,2.3
c-1.9,4-3.7,8.1-5.6,12.1c-3,6.6-6.1,13.2-9.1,19.8c-3.8,8.3-7.7,16.6-11.5,24.9c-4.2,9.1-8.4,18.2-12.6,27.3
c-4.2,9-8.3,18-12.5,27c-3.7,8-7.4,16-11.1,24.1c-2.8,6.2-5.7,12.3-8.5,18.5c-1.6,3.4-3.1,6.8-4.7,10.2
C43.9,170.6,43.3,171.6,43.9,172.6z M123.8,5.7c4.6-0.8,9.3-1.5,13.9-1.8c-8.4,6.2-15.4,14.4-20.8,23.4
c-7.8,13.1-11.8,28.2-13,43.4c-0.9,12,1,24,3.7,35.7c-8.7,0-17.5,0-26.2,0c-1.4,0-2.8-0.1-4.2,0L123.8,5.7z M58.3,147.7
c1.4,1.4,3.1,1.4,4.9,1.4c1.9,0,3.8,0,5.7,0c3.2,0,6.4,0,9.6,0c-2.7,5.8-5.4,11.6-8.2,17.4c-0.5,1-0.8,2.2-1.5,3.1
c-0.3,0.4-0.4,0.3-1,0.3c-3.5,0-7,0-10.5,0c-3.1,0-6.2,0-9.3,0L58.3,147.7z"/>
<path d="M149.8,122.5c-0.8,1.6,1,4.7,2.9,3.5c0.5-0.3,0.7-0.8,0.9-1.3c0.7-1.6,1.5-3.1,2.2-4.7
c2.9-6.1,5.8-12.1,8.6-18.2c3-6.4,6.1-12.8,9.1-19.2c1-2.1,2-4.1,2.9-6.2c0.6-1.2,1.9-3.2,0-4.1c-0.8-0.4-2.1-0.2-2.9-0.2
c-1.8,0-3.5,0-5.3,0c-1.7,0-3.4,0-5.1,0c-0.9,0-2.2,0.2-2.9-0.4c-1.2-1.2,0.3-2.7,1-3.7c1-1.4,2-2.9,3-4.4c1.6-2.5,3.2-5.1,4.6-7.8
c1.9-3.7,3.7-7.8,4-12c0.1-2,0-4.6-1.8-5.9c-1.2-0.9-3-1-4.5-0.8c-3.9,0.5-7.3,3.2-9.9,5.9c-7.4,7.7-12.2,18.4-14.2,28.8
c-1.2,6.4-1,12.8-0.3,19.2c0.4,3.7,0.9,7.4,1.7,11c0.4,1.8,0.8,3.5,1.2,5.2c0.3,1.3,0.5,2.5,2.1,2.6c1.5,0.1,3,0,4.5,0
c1.4,0,4.1-0.1,3.3,2.2c-1,2.6-2.5,5.2-3.8,7.7C150.6,120.8,150.2,121.6,149.8,122.5z M153.4,106.5c-1.2,0-2.5,0-3.7,0
c-0.2,0-1.1,0.1-1.3,0c-0.3-0.2-0.4-1.8-0.5-2.2c-0.2-0.9-0.4-1.7-0.6-2.6c-1.3-6.3-2.1-12.8-2.2-19.3c-0.3-11.4,3.7-23,10.3-32.3
c2.5-3.6,5.9-7.6,10.1-9.2c0.9-0.3,3.1-1,3.7,0.1c0.7,1.2,0.2,3.4-0.1,4.6c-0.8,3.8-2.6,7.4-4.6,10.8c-1.4,2.4-2.9,4.8-4.5,7.1
c-1.5,2.2-3.9,4.5-3.7,7.3c0.2,2.7,2.4,4.6,5,4.7c1.1,0,2.2,0,3.3,0c2.8,0,5.5,0,8.3,0l-15.6,33
C156.5,107.3,154.9,106.5,153.4,106.5z"/>
<path d="M176.4,280.3c1.3,0,1.6-1.2,2.1-2.1c0.5-1.2,1-2.4,1.5-3.6c1.9-4.4,3.7-8.8,5.6-13.1
c5.4-12.6,10.7-25.2,16.1-37.8c4.1-9.6,8.2-19.2,12.3-28.9c0.3-0.8,0.7-1.6,1-2.4c0.2-0.6,0.3-1.1,0-1.7c-1.1-2.2-4.3,0.2-5.6,1
c-9.1,5.3-17.1,12.6-23.3,21.2c-6.1,8.4-10.4,18-12.6,28.2c-2.4,10.8-2.6,22.6-0.1,33.4c0.3,1.2,0.6,2.4,0.9,3.5
C174.7,279.1,175,280.2,176.4,280.3z M175.2,257.4c0-25.3,13.1-48.8,34.7-62l-33.2,78C175.6,268.1,175.1,262.8,175.2,257.4
L175.2,257.4z"/>
<path d="M290.8,195.5c-5.5-3.9-11.5-7.3-17.7-9.8c-3.5-1.4-7-2.4-10.7-3.1c-2.4-0.5-4.8-0.8-7.2-1
c-1.4-0.1-3.3-0.7-4.1,0.9c-0.4,0.8-0.7,1.8-1.1,2.6c-2.3,5.5-4.6,11-6.8,16.5c-3.5,8.5-7,17-10.5,25.5
c-3.8,9.1-7.5,18.1-11.3,27.2c-3,7.2-6,14.5-9,21.7c-0.9,2.2-1.8,4.3-2.7,6.5c-0.3,0.8-0.8,1.6-1,2.5c-0.2,0.8,0,1.5,0.7,2
c1,0.7,2.2-0.1,3.2-0.6c2-0.9,4-1.9,6-2.9c4-2.1,7.9-4.3,11.7-6.7c3.8-2.4,7.5-5,11-7.7c0.8-0.6,1.6-1.3,2.4-1.9
c0.7-0.6,2-1.3,2.3-2.2c0.2-0.5,0.1-1.1,0.1-1.6c0-3.8,0-7.6,0-11.4c0.1-6.6,5-12.4,11.6-13.4c1.8-0.3,3.7-0.1,5.6-0.2
c2,0,4.1-0.1,6.1-0.1c0.9,0,1.7,0,2.4-0.7c0.8-0.9,1.4-1.9,2-2.9c1.2-1.8,2.5-3.7,3.6-5.5c4.7-7.6,8.8-15.6,12.1-24
c0.8-2,1.5-4,2.2-6c0.3-0.9,0.8-1.8,0.2-2.7C291.6,196.1,291.2,195.8,290.8,195.5z M269.5,234.9c-3.3,0-6.7,0.1-10,0.1
c-2.7,0.1-5.4,0.7-7.8,2c-4.8,2.6-8.2,7.4-8.9,12.9c-0.4,3.2-0.1,6.6-0.1,9.8c0,0.8,0,1.7,0,2.5c0,0.3,0.1,1,0,1.3
c-0.1,0.4-0.8,0.7-1.1,1c-0.8,0.6-1.5,1.2-2.3,1.8c-1.4,1.1-2.9,2.2-4.3,3.2c-6.7,4.8-13.9,9-21.3,12.6c2.5-6.1,5-12.1,7.5-18.2
c5.2-12.6,10.5-25.3,15.7-37.9c4.6-11.1,9.2-22.2,13.8-33.3c0.7-1.6,1.3-3.2,2-4.8c0.3-0.8,0.6-1.8,1-2.5c0.1-0.1,0.1-0.3,0.1-0.4
c0.3-0.2,1.8,0.2,2.2,0.2c0.9,0.1,1.7,0.2,2.6,0.3c1.7,0.3,3.4,0.6,5.2,0.9c3.8,0.8,7.4,2.1,11,3.7c4.1,1.8,8.1,4.1,11.8,6.6
c0.5,0.3,1,0.6,1.5,1c0.5,0.3,0.5,0.2,0.4,0.8c-0.1,0.9-0.7,1.9-1,2.7c-1.1,3-2.3,5.9-3.6,8.8c-2.7,5.9-5.7,11.7-9.2,17.2
C272.9,229.8,271.2,232.3,269.5,234.9z"/>
<path d="M289.5,94.6c-0.3-0.7-0.9-1.1-1.6-1.1c-1.5,0-1.9,1.9-2.4,3c-0.8,2-1.6,4.1-2.4,6.1c-2.5,6.3-5,12.7-7.5,19
c-2.5,6.2-4.9,12.4-7.4,18.7c-0.7,1.8-1.4,3.6-2.1,5.3c-0.1,0.4-0.3,0.7-0.4,1.1c-0.5,1.7,0.8,2.4,2.2,2.6
c5.3,0.8,10.5,2.5,15.5,4.3c4.7,1.7,9.1,3.9,13.6,6c1.4,0.6,2.6-0.1,2.7-1.6c0.2-1.9,0.2-3.8,0.2-5.7c0.1-3.8,0-7.5-0.2-11.3
c-0.4-7.5-1.4-14.9-3-22.3C295,110.5,292.6,102.4,289.5,94.6z M296.4,155.4c-3.8-1.9-7.8-3.6-11.8-5c-4.8-1.8-9.9-3.2-15-4.3
l18.1-46.1c5,13.7,7.9,28.2,8.6,42.7C296.6,147,296.6,151.2,296.4,155.4L296.4,155.4z"/>
<path d="M298.3,163.9c-5.4-3.1-11.1-5.7-17-7.7c-3.3-1.1-6.6-2.1-9.9-2.9c-2.2-0.5-4.3-1-6.5-1.3
c-1.5-0.2-4.3-0.2-3.7-2.5c0-0.1,0.1-0.2,0.1-0.3c2-5.6,4.4-11.1,6.5-16.6c3.6-9,7.1-18.1,10.7-27.1c2.3-5.9,4.6-11.7,6.9-17.6
c0.1-0.2,0.1-0.3,0.2-0.5c0.4-1.1-0.2-1.9-0.7-2.9c-1.9-3.9-4-7.8-6.3-11.6c-4.5-7.5-9.7-14.6-15.4-21.2c-1.4-1.6-2.9-3.2-4.4-4.8
c-1.1-1.2-2.7-2.9-4-0.9c-0.2,0.3-0.4,0.7-0.5,1c-1.2,2.3-2.5,4.6-3.7,7c-4.3,8.2-8.7,16.3-13,24.5c-3.8,7.1-7.6,14.3-11.4,21.4
c-0.5,1-1.3,3.4-2.4,3.8c-1.4,0.5-2.2-0.9-2-2.1c0.1-0.7,0.3-1.3,0.4-2c1.3-7,2.6-14,4-21c1.8-9.6,3.6-19.2,5.4-28.8
c1.3-6.7,2.5-13.3,3.8-20c0.1-0.5,0.2-1.1,0.3-1.6c0.1-0.5,0.1-1-0.2-1.4c-0.5-0.8-1.8-1.4-2.6-1.9c-1-0.7-2-1.3-3-2
c-3.9-2.5-7.9-4.7-12-6.8c-2-1-4.1-2-6.1-2.9c-0.8-0.4-1.7-1-2.6-0.5c-0.9,0.4-1.2,1.4-0.9,2.3c0.8,2.2,1.7,4.3,2.3,6.6
c0.6,2.2,1,4.5,1.2,6.8c0.3,3.3,0.1,6.5-0.6,9.7c-1.4,6.5-4.2,12.6-7.2,18.5c-2.4,4.6-5,9.2-7.8,13.5c-0.4,0.6-0.8,1.5-1.3,1.8
c-0.5,0.4-1.3,0.3-1.9,0.3c-2.3,0-4.5,0-6.8,0c-1.5,0-3.8-0.5-4.7,1c-0.2,0.3-0.3,0.7-0.5,1.1c-1.1,2.3-2.2,4.6-3.3,6.9
c-3.9,8.3-7.8,16.5-11.7,24.8c-3.6,7.7-7.3,15.4-10.9,23.1c-0.8,1.6-1.5,3.4-2.3,4.9c-0.1,0.3-0.3,0.5-0.5,0.7
c-1.3,1-2.2-0.2-2.6-1.3c-0.3-0.9-0.5-2.1-1-2.8c-0.9-1.1-2.3-0.7-3,0.4c-2,3.3-3.5,7-5.3,10.5c-0.7,1.4-1.3,2.9-2.1,4.2
c-0.8,1.3-2.5,1-3.8,1c-2.2,0-4.4,0-6.7,0c-0.8,0-1.5,0-2.1,0.6c-0.7,0.8-0.3,1.8-0.1,2.7c0.2,0.9,0.4,1.7,0.6,2.6
c1.5,7.1,3,14.3,3.6,21.6c0.6,7.7,1.3,15.7,0.1,23.4c-1.1,6.7-3.6,13.2-7.5,18.8c-7.1,10.4-18.4,17.8-30.8,20.4c-3,0.6-6,1-9,1
c-2.3,0-4.5,0-6.8-0.1c-1.2-0.1-2.4-0.1-3.6-0.2c-1-0.1-2.3,0.1-2.8-0.9c-0.6-1,0.4-2.4,0.8-3.3c0.9-1.9,1.8-3.8,2.6-5.7
c1.8-3.8,3.6-7.7,5.3-11.5c0.6-1.4,0.9-3.2-1.2-3.3c-1.2-0.1-2.5,0-3.8,0c-4.5,0-9.1,0-13.6,0c-1.1,0-3-0.3-3.7,0.7
c-0.6,0.8-1,2-1.4,2.9c-2,4.2-3.9,8.4-5.9,12.5c-0.6,1.2-1,2.5-1.7,3.6c-0.7,1.2-1.9,1-3.1,0.9c-1.5-0.1-3-0.2-4.5-0.5
c-3-0.5-6.1-1.2-9-1.9c-1.6-0.4-5.2-2-5.6,0.5c-0.2,1,0.6,1.8,1.1,2.6c0.6,0.9,1.3,1.9,1.9,2.8c1.3,1.8,2.6,3.6,4,5.3
c2.6,3.4,5.4,6.6,8.3,9.8c3,3.2,6.1,6.4,9.4,9.3c1.6,1.4,3.2,2.8,4.9,4.2c1.3,1.1,2.4,2.3,4.1,2.5c3.2,0.4,6.5,0.7,9.8,0.9
c6,0.3,11.9,0.3,17.8-0.5c7-1,13.9-2.8,20.6-5.3c12.7-4.8,25.5-12.6,32.9-24.3c0.4-0.7,0.7-1.5,1.6-1.7c0.8-0.2,1.7,0.3,1.9,1.1
c0.2,1-0.3,2.3-0.4,3.3c-0.2,1.3-0.4,2.5-0.5,3.8c-0.6,4.8-0.7,9.7-0.7,14.5c0,4.7,0.3,9.4,0.9,14.1c1,7.3,2.5,14.5,4.7,21.5
c0.3,1,0.6,1.9,1,2.9c0.4,1.2,0.9,1.9,2.4,2c4.7,0.1,9.5-0.2,14.2-0.7c1.2-0.1,2.4-0.2,3.6-0.4c0.9-0.1,1.6-0.3,2.1-1.1
c0.2-0.5,0.4-1,0.6-1.4c0.9-2.1,1.8-4.2,2.7-6.4c0.3-0.7,0.6-1.4,0.9-2.2c0.3-0.9,0.2-1.5-0.2-2.3c-0.7-1.5-1.4-3.1-2-4.7
c-2.1-5.9-3-12.3-3.3-18.6c-0.7-14.7,2.2-29.3,9.1-42.3c6.7-12.5,16.7-23.1,28.8-30.4c14.2-8.5,31.6-12.9,48.1-11.2
c6,0.6,12,1.6,17.7,3.7c4.6,1.7,8.9,3.8,13.1,6.3c1.3,0.8,2.5,1.5,3.8,2.3c0.6,0.4,1.3,0.9,1.9,1.3c1.7,1.1,2.8,0.2,3.2-1.6
c1.3-4.5,2.3-9.1,3.1-13.6c0.4-2.3,0.8-4.5,1.1-6.8c0.2-1.2,0.3-2.4,0.4-3.5C299.2,165.5,299.3,164.5,298.3,163.9z M158.4,172.2
c0-0.6,0.3-1.1,0.6-1.6c0.4-0.9,0.9-1.8,1.3-2.6c1.5-3.1,3-6.2,4.5-9.4c4.4-9.1,8.8-18.2,13.2-27.2c3.7-7.7,7.5-15.4,11.2-23.1
c0.7-1.4,1.3-2.9,2.1-4.3c1-1.7,3.2-0.7,2.9,1.2c-0.1,0.7-0.3,1.3-0.5,1.9c-1.8,7.5-3.6,15-5.5,22.6c-2.4,9.9-4.8,19.8-7.2,29.7
c-0.8,3.5-1.7,6.9-2.5,10.4c-0.3,1.4-0.7,2.8-0.9,4.2c-0.3,2-1,4-1.5,5.9c-0.4,1.6-1.6,4.5,1,4.7c1.3,0.1,2.6,0,3.9,0
c2.5,0,5,0,7.6,0c2.3,0,4.6,0,6.9,0c1.2,0,2.8,0.3,3.7-0.8c1.3-1.7,2.4-3.8,3.6-5.6c5.3-8.3,10.6-16.5,15.9-24.8
c2.2-3.5,4.5-7,6.8-10.4c4.7-7.3,9.4-14.6,14.1-21.9c4.6-7.2,9.2-14.4,13.9-21.6c0.4-0.6,0.7-1.2,1.1-1.8c1.2-1.6,3.4-0.4,2.7,1.5
c-0.7,2.1-1.7,4.1-2.6,6.2c-3.8,9-7.5,18-11.3,27c-1.7,4.1-3.4,8.2-5.1,12.3c-0.8,1.9-1.5,4-2.4,5.8c-0.7,1.2-2.1,1.1-3.4,1.3
c-2.1,0.3-4.2,0.7-6.3,1.1c-1.4,0.3-3.5,0.4-4.4,1.6c-0.2,0.2-0.3,0.5-0.4,0.7c-1.9,3-3.9,6-5.8,9c-4.8,7.4-9.5,14.7-14.3,22.1
c-0.5,0.8-0.9,1.3-1.9,1.4c-1.2,0.1-2.5,0-3.8,0c-4.9,0-9.9,0-14.8,0c-2,0-4,0-6,0c-0.5,0-1,0-1.5,0c-1,0-1.3-0.5-1.8-1.3
c-1.7-2.8-4.6,1.7-5.6,2.9c-0.9,1.1-1.8,2.2-2.6,3.3c-0.7,0.9-1.3,1.7-1.9,2.6c-0.6,0.8-1.2,2.1-2,2.6c-0.8,0.4-1.8,0.1-2.1-0.8
c-0.4-0.9,0.1-2.2,0.3-3.1c0.4-2.5,0.6-4.9,0.9-7.4C158.5,181.7,158.7,177,158.4,172.2z M291.5,188.1c-6.5-4.1-13.3-7.9-20.8-10.2
c-12.8-3.9-27-4.2-40-1.4c-9,1.9-17.7,5.3-25.6,10c4.3-6.7,8.6-13.4,12.9-20c1.2-1.9,2.5-3.9,3.7-5.8c0.7-1.1,1.4-2.4,2.2-3.4
c0.3-0.4,0.2-0.4,0.7-0.6c2-0.7,4.3-0.9,6.4-1.2c3.2-0.5,6.5-0.4,8-3.7c2.8-6.4,5.4-12.9,8.1-19.4c3.8-9,7.5-18,11.3-27.1
c0.8-1.8,1.7-3.6,2.3-5.5c1.1-4.1-3.3-7.7-7.1-5.8c-1.1,0.6-1.8,1.5-2.5,2.5c-4.3,6.7-8.7,13.5-13,20.2
c-5.1,7.9-10.1,15.7-15.2,23.6c-2.4,3.7-4.8,7.4-7.1,11c-5.4,8.4-10.8,16.8-16.2,25.2c-0.8,1.2-1.6,2.4-2.3,3.6
c-0.3,0.4-0.4,0.8-0.8,0.9c-0.6,0.2-1.4,0-2,0c-1.1,0-2.3,0-3.4,0c-2.6,0-5.3,0-7.9,0c-1.3,0-2.6,0-3.9,0c1.1-4.5,2.2-8.9,3.3-13.4
c2.1-8.5,4.1-17.1,6.2-25.6c2.2-9,4.3-17.9,6.5-26.9c0.6-2.6,1.3-5.2,1.9-7.8c0.1-0.5,0.2-1,0.4-1.4c0.6-2.8-1-5.6-3.9-6.1
c-2.3-0.5-4.5,0.8-5.6,2.8c-0.3,0.5-0.5,1-0.7,1.5c-1.2,2.4-2.4,4.9-3.5,7.3c-4,8.2-8,16.5-12,24.7c-4,8.2-8,16.5-12,24.7
c-1.2,2.5-2.4,4.9-3.6,7.4c-0.3,0.5-0.5,1.1-0.8,1.6c-1.1,2.3-0.5,5.4-0.5,7.9c-0.1,4.9-0.4,9.7-1.1,14.5c-0.3,2-1,4.1-0.2,6
c0.6,1.6,2,2.7,3.7,3c4.3,0.8,6.3-3.8,8.4-6.6c0.9-1.2,1.9-2.4,2.9-3.5c0.2-0.2,0.5-0.9,0.8-1c0.3-0.1,0.5,0.1,0.9,0.3
c0.8,0.4,1.6,0.6,2.5,0.7c7.6,0.2,15.2,0,22.8,0c0.8,0,1.7,0,2.5,0c-10.4,7.7-18.9,17.9-24.6,29.5c-5.7,11.6-8.6,24.5-8.5,37.4
c0,6.4,0.5,12.9,2.1,19.2c0.5,2.1,1.2,4.2,2,6.3c0.4,0.9,0.8,1.8,1.2,2.7c0.3,0.6,0.4,0.7,0.2,1.3c-0.7,1.7-1.4,3.4-2.2,5.1
c-0.3,0.8-0.6,1.5-1,2.3c-0.4,0.9-0.8,0.7-1.8,0.8c-4.1,0.4-8.3,0.7-12.5,0.8c-0.6,0-1.9,0.3-2.3-0.1c-0.2-0.2-0.2-0.6-0.3-0.9
c-0.2-0.6-0.4-1.3-0.6-1.9c-1.9-6.1-3.3-12.4-4.1-18.7c-1.3-10.2-1.6-20.5-0.3-30.7c0.4-3.2,2-7.2-0.9-9.7c-2.3-2-5.8-1.3-7.5,1.1
c-1.5,2.3-3,4.5-4.9,6.6c-1.9,2.1-4,4.1-6.2,5.8c-9.3,7.5-20.7,12.4-32.3,15.1c-9.9,2.3-19.9,2.6-30,1.7c-1.4-0.1-2.7-0.3-4.1-0.4
c-0.3,0-0.8,0-1.1-0.1c-0.7-0.3-1.4-1.1-2-1.6c-1.4-1.2-2.8-2.4-4.2-3.6c-5.5-4.9-10.7-10.3-15.4-16c-2.3-2.8-4.6-5.8-6.7-8.8
c2,0.5,4,0.9,6,1.3c1.6,0.3,3.2,0.5,4.8,0.7c1.6,0.2,3.3,0.4,4.9,0.2c3.7-0.5,4.8-4.9,6.2-7.8c1.7-3.8,3.5-7.5,5.2-11.3
c0.2-0.5,0.5-1.5,0.9-1.7c0.4-0.2,1.2,0,1.6,0c0.9,0,1.8,0,2.6,0c3.8,0,7.7,0,11.5,0c-2.6,5.7-5.3,11.3-7.9,17
c-0.8,1.6-1,3.4-0.1,5c1.8,3.4,6.4,2.8,9.6,3c6,0.3,11.9,0.2,17.8-1.2c10.5-2.5,20.3-8.3,27.5-16.3c8-8.9,12.4-20.5,12.8-32.4
c0.4-13.1-1.6-26.3-4.3-39.1c-0.1-0.6-0.3-1.3-0.4-1.9c1.6,0,3.1,0,4.7,0c1.8,0,3.8,0.3,5.4-0.7c1.5-0.9,2.1-2.3,2.8-3.8
c0.9-1.9,1.8-3.7,2.7-5.6c0.7-1.3,1.3-2.7,2-4c2,3.5,7.1,3.2,8.9-0.3c0.2-0.4,0.4-0.8,0.6-1.2c1.3-2.8,2.7-5.7,4-8.5
c4.6-9.6,9.1-19.3,13.7-28.9c3.3-6.9,6.5-13.7,9.8-20.6c0.3-0.7,0.2-0.6,1.1-0.6c2.5,0,5,0,7.5,0c0.8,0,1.5,0.1,2.3,0
c1.7-0.2,2.9-1.3,3.8-2.6c1.2-1.8,2.3-3.6,3.4-5.5c3.7-6.2,7-12.6,9.7-19.3c1.3-3.4,2.5-6.9,3.2-10.5c0.8-4.1,0.8-8.3,0.2-12.5
c-0.4-2.6-1-5.1-1.8-7.6c6.2,3,12.2,6.4,18,10.2c0.9,0.6,1,0.4,1,1.1c0,0.4-0.2,1-0.3,1.4c-0.8,4.5-1.7,8.9-2.5,13.4
c-2.6,13.7-5.2,27.5-7.7,41.2c-0.9,4.7-1.8,9.3-2.6,14c-0.1,0.8-0.3,1.5-0.4,2.3c-0.8,4.8,5.2,8,8.6,4.4c0.8-0.8,1.2-1.9,1.8-2.9
c1-1.8,1.9-3.7,2.9-5.5c3.1-5.8,6.1-11.5,9.2-17.3c5.3-9.9,10.5-19.9,15.8-29.8c0.1-0.2,0.2-0.3,0.3-0.5c7.6,8.1,14.3,17,19.8,26.6
c1.4,2.3,2.7,4.7,3.9,7.1c0.3,0.6,0.6,1.2,0.9,1.8c0.2,0.3,0.7,1.1,0.7,1.5c0,0,0,0.1-0.1,0.1c-0.1,0.7-0.7,1.7-0.9,2.4
c-3.8,9.5-7.5,19-11.3,28.5c-3.7,9.4-7.4,18.8-11.1,28.2c-0.3,0.7-0.6,1.4-0.9,2.2c-0.4,1.2-0.5,2.4-0.1,3.6
c0.9,2.5,3.1,3.1,5.6,3.5c4.7,0.7,9.4,1.9,14,3.4c3.9,1.3,7.8,2.7,11.5,4.4c1.8,0.8,3.5,1.6,5.2,2.6c0.3,0.2,1.2,0.4,1.4,0.7
c0.2,0.3-0.1,1.4-0.1,1.8c-0.1,0.8-0.2,1.6-0.3,2.4c-0.4,3-1,6-1.6,8.9C293,182.4,292.3,185.2,291.5,188.1z"/>
<path d="M265.3,241.5c-4.3,0-8.7-0.5-12.2,2.3c-2.6,2.1-3.8,5.1-3.8,8.4c0,2.1-0.2,4.2,0,6.3c0.1,0.7,0.3,1.3,1,1.6
c1.2,0.6,2.1-0.4,2.9-1.2c1.8-1.7,3.6-3.5,5.4-5.4c2-2.1,3.9-4.2,5.8-6.4c0.8-1,2.1-2.1,2.6-3.3
C267.3,242.8,266.5,241.5,265.3,241.5z M252.7,254.5c0-1.8-0.2-3.7,0.6-5.4c1.1-2.5,3.6-4.1,6.4-4.1h1.9
C258.8,248.2,255.9,251.7,252.7,254.5z"/>
<path d="M247,182c-0.8-1.1-2.5-0.7-3.7-0.6c-1.5,0.1-3,0.2-4.6,0.4c-3,0.4-5.9,0.9-8.8,1.6c-2.7,0.7-5.8,1.3-8.3,2.5
c-0.5,0.2-0.8,0.6-1.1,1.1c-0.7,1.5-1.3,3.1-2,4.6c-3.4,8-6.8,16-10.2,23.9c-4.8,11.2-9.5,22.4-14.3,33.6
c-4.3,10.2-8.7,20.3-13,30.5c-2.2,5.1-4.5,10.2-6.5,15.4c0,0.1-0.1,0.2-0.1,0.2c-0.3,0.9,0,1.9,0.9,2.3c1.2,0.5,2.9-0.2,4-0.4
c5.8-1.1,11.5-2.6,17.1-4.5c1.4-0.5,2.8-0.9,4.2-1.4c1-0.4,2.1-0.6,2.7-1.6c0-0.1,0.1-0.2,0.1-0.3c0.3-0.6,0.5-1.2,0.8-1.8
c2.9-7,5.8-14,8.7-21c4.5-11,9.1-22,13.6-32.9c4.4-10.6,8.7-21.1,13.1-31.7c2.4-5.9,4.9-11.8,7.3-17.6
C247.2,183.6,247.5,182.8,247,182z M200.4,287.7c-7,2.6-14.1,4.6-21.4,6c1.7-3.9,3.3-7.8,5-11.7c3.9-9.1,7.8-18.2,11.6-27.3
c4.5-10.7,9.1-21.4,13.6-32c3.6-8.5,7.2-17,10.8-25.5c1-2.3,1.9-4.5,2.9-6.8c0.2-0.4,0.3-1,0.6-1.3c0.5-0.6,2.3-0.8,3-1
c2.7-0.8,5.4-1.5,8.1-2c2.7-0.5,5.5-0.9,8.3-1.1L200.4,287.7z"/>
<path d="M30.1,227.6c2.4,0.6,4.7,1.2,7.1,1.6c1.8,0.3,3.6,0.6,5.4,0.8c1.2,0.1,1.9-0.3,2.4-1.3
c1.3-2.6,2.4-5.2,3.7-7.8c0.9-1.9,2.2-4,2.8-6c0.8-2.7-2.4-2.3-4-2.3c-2.7,0-5.4,0-8.1,0c-6.4,0-12.9,0-19.3,0
c-1.3,0-4.3-0.5-5.2,0.7c-0.9,1.3,0.6,3.3,1.2,4.5c0.9,1.7,1.8,3.4,2.7,5.1c0.6,1.2,1,1.8,2.3,2.2c0.7,0.2,1.4,0.4,2.1,0.7
C25.5,226.4,27.8,227,30.1,227.6z M22.2,221.7c-1.1-1.9-2.1-3.8-3-5.7h28c-0.9,1.8-1.7,3.7-2.6,5.5c-0.6,1.2-1.1,2.4-1.7,3.5
c-0.3,0.5-0.4,1.2-0.9,1.3c-0.7,0.2-1.8-0.2-2.5-0.4c-0.9-0.1-1.7-0.3-2.6-0.5c-1-0.2-1.9-0.4-2.9-0.6c-2-0.4-3.9-1-5.8-1.5
C26.2,222.9,24.2,222.3,22.2,221.7z"/>
<path d="M103.9,211.6c-0.6,1.3-2.7,0.9-3.9,0.9c-2.1,0-4.3,0-6.4,0c-2.9,0-5.9,0-8.8,0c-0.9,0-1.7,0.1-2.2,1 c-0.2,0.3-0.3,0.6-0.4,0.8c-0.7,1.5-1.4,3-2.1,4.6c-1.8,3.8-3.5,7.5-5.3,11.3c-0.4,0.9-1.3,2.1-0.8,3.2c0.4,0.9,1.3,1,2.2,1 c1.1,0,2.2,0.1,3.3,0.1c1.9,0,3.8,0.1,5.7-0.1c6.4-0.4,12.7-2.3,18.3-5.4c10.5-5.8,18.5-15.9,21.9-27.4c1.9-6.1,2-12.3,1.7-18.7 c-0.4-7.6-1.2-15.1-2.6-22.6c-0.4-2.1-0.8-4.1-1.2-6.2c-0.4-2.1-0.8-4.3-1.4-6.3c-0.7-2-3.6-1.3-5.3-1.3c-1.4,0-2.7-0.2-3.5,1.3 c-0.5,1-1,2.1-1.4,3.1c-1.8,3.9-3.6,7.8-5.4,11.7c-1.3,2.7-2.7,5.4-3.8,8.2c-0.6,1.6,0.4,2.6,1.9,2.6c1.7,0,3.3,0,5,0 c2.2,0,4.4,0,6.6,0c1.1,0,2.2-0.1,3.3,0c3.1,0.3,0.4,4.3-0.2,5.6c-1.6,3.5-3.3,7-4.9,10.5c-3.2,6.9-6.5,13.9-9.7,20.8 C104.3,210.7,104.1,211.2,103.9,211.6z M119.3,169.9h-12.6c1.9-4.1,3.8-8.3,5.8-12.4c1-2.2,2.1-4.4,3.1-6.6c0.1-0.3,0.3-0.8,0.5-1 c0.4-0.2,1.4,0,1.8,0c0.2,0,0.7-0.1,0.8,0c0.3,0.2,0.3,0.9,0.4,1.3c1.5,6.6,2.7,13.2,3.6,19.9C121.7,170.4,120.5,169.9,119.3,169.9 L119.3,169.9z M123.4,178c0,5.2,0.7,10.4,0.1,15.6c-0.6,4.8-2,9.5-4.2,13.9c-4.6,9.1-12.3,16.6-21.8,20.5c-6.3,2.6-12.6,3-19.3,3 c2.2-4.8,4.5-9.7,6.7-14.5c0-0.1,0.1-0.5,0.2-0.5c0.3-0.2,1.5,0,1.9,0c0.9,0,1.8,0,2.7,0c3.1,0,6.3,0,9.4,0c3,0,6.2,0.3,7.8-2.9 c0.6-1.2,1.1-2.4,1.7-3.6c2.8-5.9,5.6-11.9,8.4-17.8C119.1,187.2,121.3,182.6,123.4,178z"/> <path d="M143.9,296.1c-3-8.9-4.7-18.3-5.4-27.6c-0.2-2.4-0.3-4.9-0.3-7.3c0-2.2,0-4.3,0-6.5c0-1.1,0.1-2.3,0.1-3.4 c0.1-1,0.4-2.2-0.4-3c-1.4-1.4-2.8,0.4-3.8,1.3c-1.1,1-2.2,2-3.3,2.9c-2.5,2.1-5.1,3.9-7.8,5.7c-13.2,8.4-28.6,13.3-44.2,13.8 c-2.1,0.1-4.3,0.1-6.4,0c-1.4,0-2.7-0.2-4.1-0.1c-1.9,0.1-2.5,2.2-0.9,3.3c1.7,1.3,3.6,2.4,5.5,3.5c7.3,4.4,15.1,8.2,23.1,11.3
c7.9,3.1,16.1,5.5,24.4,7.1c4.2,0.8,8.5,1.5,12.7,2c2.1,0.2,4.3,0.4,6.4,0.6c1.4,0.1,4,0.8,4.8-0.7
C144.9,298.1,144.2,297,143.9,296.1z M74.4,275.5c16.9,0,33.6-4.3,48.1-13.1c4.2-2.6,8.3-5.5,12.1-8.7c0,4-0.2,7.9,0.1,11.9
c0.2,2.4,0.3,4.7,0.6,7c0.6,5,1.4,9.9,2.5,14.8c0.6,2.9,1.4,5.7,2.3,8.5C116.9,294.6,94.3,287.5,74.4,275.5L74.4,275.5z"/>
</svg>