<svg version="1.1" xmlns="http://www.w3.org/2000/svg" xmlns:xlink="http://www.w3.org/1999/xlink" x="0px" y="0px"
	 viewBox="0 0 1920 1080" style="enable-background:new 0 0 1920 1080;" xml:space="preserve">
<style type="text/css">
	.st0{fill:none;stroke:#eae7e1;stroke-miterlimit:10;}
	.st1{display:none;}
	.st2{display:inline;fill:none;stroke:#eae7e1;stroke-width:1.1339;stroke-miterlimit:10;}
	.st3{fill:none;stroke:#eae7e1;stroke-width:1.1339;stroke-miterlimit:10;}
</style>
<g id="renglones">
	<g>
		<line class="st0" x1="-0.5" y1="40" x2="1919.5" y2="40"/>
		<line class="st0" x1="-0.48" y1="80" x2="1919.52" y2="80"/>
		<line class="st0" x1="-0.46" y1="120" x2="1919.54" y2="120"/>
		<line class="st0" x1="-0.44" y1="160" x2="1919.56" y2="160"/>
		<line class="st0" x1="-0.42" y1="200" x2="1919.58" y2="200"/>
		<line class="st0" x1="-0.4" y1="240" x2="1919.6" y2="240"/>
		<line class="st0" x1="-0.38" y1="280" x2="1919.62" y2="280"/>
		<line class="st0" x1="-0.36" y1="320" x2="1919.64" y2="320"/>
		<line class="st0" x1="-0.34" y1="360" x2="1919.66" y2="360"/>
		<line class="st0" x1="-0.32" y1="400" x2="1919.68" y2="400"/>
		<line class="st0" x1="-0.3" y1="440" x2="1919.7" y2="440"/>
		<line class="st0" x1="-0.28" y1="480" x2="1919.72" y2="480"/>
		<line class="st0" x1="-0.26" y1="520" x2="1919.74" y2="520"/>
		<line class="st0" x1="-0.24" y1="560" x2="1919.76" y2="560"/>
		<line class="st0" x1="-0.22" y1="600" x2="1919.78" y2="600"/>
		<line class="st0" x1="-0.2" y1="640" x2="1919.8" y2="640"/>
		<line class="st0" x1="-0.18" y1="680" x2="1919.82" y2="680"/>
		<line class="st0" x1="-0.16" y1="720" x2="1919.84" y2="720"/>
		<line class="st0" x1="-0.14" y1="760" x2="1919.86" y2="760"/>
		<line class="st0" x1="-0.12" y1="800" x2="1919.88" y2="800"/>
		<line class="st0" x1="-0.1" y1="840" x2="1919.9" y2="840"/>
		<line class="st0" x1="-0.08" y1="880" x2="1919.92" y2="880"/>
		<line class="st0" x1="-0.06" y1="920" x2="1919.94" y2="920"/>
		<line class="st0" x1="-0.04" y1="960" x2="1919.96" y2="960"/>
		<line class="st0" x1="-0.02" y1="1000" x2="1919.98" y2="1000"/>
		<line class="st0" x1="0" y1="1040" x2="1920" y2="1040"/>
	</g>
</g>
<g id="_x34_5" class="st1">
	<line class="st2" x1="111.07" y1="0.04" x2="-0.14" y2="111.25"/>
	<line class="st2" x1="222.18" y1="0.04" x2="-0.5" y2="222.72"/>
	<line class="st2" x1="333.29" y1="0.04" x2="-0.14" y2="333.47"/>
	<line class="st2" x1="444.4" y1="0.04" x2="-0.3" y2="444.74"/>
	<line class="st2" x1="555.52" y1="0.04" x2="0" y2="555.56"/>
	<line class="st2" x1="666.63" y1="0.04" x2="-0.5" y2="667.17"/>
	<line class="st2" x1="777.74" y1="0.03" x2="0" y2="777.78"/>
	<line class="st2" x1="888.86" y1="0.03" x2="0" y2="888.89"/>
	<line class="st2" x1="999.97" y1="0.03" x2="-0.38" y2="1000.38"/>
	<line class="st2" x1="1111.08" y1="0.03" x2="28.28" y2="1082.83"/>
	<line class="st2" x1="1222.19" y1="0.03" x2="139.56" y2="1082.67"/>
	<line class="st2" x1="1333.31" y1="0.03" x2="250.83" y2="1082.5"/>
	<line class="st2" x1="1444.42" y1="0.02" x2="362.11" y2="1082.33"/>
	<line class="st2" x1="1555.53" y1="0.02" x2="473.39" y2="1082.17"/>
	<line class="st2" x1="1666.65" y1="0.02" x2="584.67" y2="1082"/>
	<line class="st2" x1="1777.76" y1="0.02" x2="695.94" y2="1081.83"/>
	<line class="st2" x1="1888.87" y1="0.02" x2="807.22" y2="1081.67"/>
	<line class="st2" x1="1920" y1="80" x2="918.5" y2="1081.5"/>
	<line class="st2" x1="1920" y1="191.11" x2="1029.78" y2="1081.33"/>
	<line class="st2" x1="1920" y1="302.22" x2="1141.06" y2="1081.17"/>
	<line class="st2" x1="1920" y1="413.33" x2="1252.33" y2="1081"/>
	<line class="st2" x1="1920" y1="524.44" x2="1363.61" y2="1080.83"/>
	<line class="st2" x1="1919.67" y1="635.89" x2="1474.89" y2="1080.67"/>
	<line class="st2" x1="1920" y1="746.67" x2="1586.17" y2="1080.5"/>
	<line class="st2" x1="1920" y1="857.78" x2="1697.44" y2="1080.33"/>
	<line class="st2" x1="1919.5" y1="969.39" x2="1808.72" y2="1080.17"/>
</g>
<g id="_x37_5" class="st1">
	<line class="st2" x1="-0.5" y1="309.81" x2="82.84" y2="-1.7"/>
	<line class="st2" x1="-0.24" y1="614.65" x2="164.65" y2="-1.7"/>
	<line class="st2" x1="0" y1="919.56" x2="246.47" y2="-1.7"/>
	<line class="st2" x1="38.76" y1="1080.5" x2="328.28" y2="-1.7"/>
	<line class="st2" x1="120.57" y1="1080.5" x2="410.1" y2="-1.7"/>
	<line class="st2" x1="202.39" y1="1080.5" x2="491.91" y2="-1.7"/>
	<line class="st2" x1="284.2" y1="1080.5" x2="573.73" y2="-1.7"/>
	<line class="st2" x1="366.02" y1="1080.5" x2="655.54" y2="-1.7"/>
	<line class="st2" x1="447.83" y1="1080.5" x2="737.36" y2="-1.7"/>
	<line class="st2" x1="529.65" y1="1080.5" x2="819.17" y2="-1.7"/>
	<line class="st2" x1="611.46" y1="1080.5" x2="900.99" y2="-1.7"/>
	<line class="st2" x1="693.28" y1="1080.5" x2="982.8" y2="-1.7"/>
	<line class="st2" x1="775.09" y1="1080.5" x2="1064.62" y2="-1.7"/>
	<line class="st2" x1="856.91" y1="1080.5" x2="1146.43" y2="-1.7"/>
	<line class="st2" x1="938.72" y1="1080.5" x2="1228.25" y2="-1.7"/>
	<line class="st2" x1="1020.54" y1="1080.5" x2="1310.06" y2="-1.7"/>
	<line class="st2" x1="1102.35" y1="1080.5" x2="1391.88" y2="-1.7"/>
	<line class="st2" x1="1184.17" y1="1080.5" x2="1473.69" y2="-1.7"/>
	<line class="st2" x1="1265.98" y1="1080.5" x2="1555.51" y2="-1.7"/>
	<line class="st2" x1="1347.8" y1="1080.5" x2="1637.32" y2="-1.7"/>
	<line class="st2" x1="1429.61" y1="1080.5" x2="1719.14" y2="-1.7"/>
	<line class="st2" x1="1511.43" y1="1080.5" x2="1800.95" y2="-1.7"/>
	<line class="st2" x1="1593.24" y1="1080.5" x2="1882.77" y2="-1.7"/>
	<line class="st2" x1="1675.06" y1="1080.5" x2="1921.2" y2="160.45"/>
	<line class="st2" x1="1756.87" y1="1080.5" x2="1920" y2="470.75"/>
	<line class="st2" x1="1838.69" y1="1080.5" x2="1921.2" y2="772.08"/>
</g>
<g id="_x31_05">
	<line class="st3" x1="1921.2" y1="309.81" x2="1837.86" y2="-1.7"/>
	<line class="st3" x1="1920.94" y1="614.65" x2="1756.04" y2="-1.7"/>
	<line class="st3" x1="1920.7" y1="919.56" x2="1674.23" y2="-1.7"/>
	<line class="st3" x1="1881.94" y1="1080.5" x2="1592.41" y2="-1.7"/>
	<line class="st3" x1="1800.12" y1="1080.5" x2="1510.6" y2="-1.7"/>
	<line class="st3" x1="1718.31" y1="1080.5" x2="1428.79" y2="-1.7"/>
	<line class="st3" x1="1636.49" y1="1080.5" x2="1346.97" y2="-1.7"/>
	<line class="st3" x1="1554.68" y1="1080.5" x2="1265.16" y2="-1.7"/>
	<line class="st3" x1="1472.87" y1="1080.5" x2="1183.34" y2="-1.7"/>
	<line class="st3" x1="1391.05" y1="1080.5" x2="1101.53" y2="-1.7"/>
	<line class="st3" x1="1309.24" y1="1080.5" x2="1019.71" y2="-1.7"/>
	<line class="st3" x1="1227.42" y1="1080.5" x2="937.9" y2="-1.7"/>
	<line class="st3" x1="1145.61" y1="1080.5" x2="856.08" y2="-1.7"/>
	<line class="st3" x1="1063.79" y1="1080.5" x2="774.27" y2="-1.7"/>
	<line class="st3" x1="981.98" y1="1080.5" x2="692.45" y2="-1.7"/>
	<line class="st3" x1="900.16" y1="1080.5" x2="610.64" y2="-1.7"/>
	<line class="st3" x1="818.35" y1="1080.5" x2="528.82" y2="-1.7"/>
	<line class="st3" x1="736.53" y1="1080.5" x2="447.01" y2="-1.7"/>
	<line class="st3" x1="654.72" y1="1080.5" x2="365.19" y2="-1.7"/>
	<line class="st3" x1="572.9" y1="1080.5" x2="283.38" y2="-1.7"/>
	<line class="st3" x1="491.09" y1="1080.5" x2="201.56" y2="-1.7"/>
	<line class="st3" x1="409.27" y1="1080.5" x2="119.75" y2="-1.7"/>
	<line class="st3" x1="327.46" y1="1080.5" x2="37.93" y2="-1.7"/>
	<line class="st3" x1="245.64" y1="1080.5" x2="-0.5" y2="160.45"/>
	<line class="st3" x1="163.83" y1="1080.5" x2="0.7" y2="470.75"/>
	<line class="st3" x1="82.01" y1="1080.5" x2="-0.5" y2="772.08"/>
</g>
</svg>
